<svg width="14" height="24" viewBox="0 0 14 24" fill="none" xmlns="http://www.w3.org/2000/svg">
<path d="M9.64943 1.25003C8.13749 1.25015 6.78737 1.71412 5.81299 2.6764C4.83612 3.64114 4.32 5.02462 4.32 6.70003V8.57003H2H1.25V9.32003V12.88V13.63H2H4.32V22V22.75H5.07H8.75H9.5V22V13.63H11.81H12.4693L12.5538 12.9761L13.0138 9.41614L13.1231 8.57003H12.27H9.5V7.05003C9.5 6.55157 9.57677 6.35934 9.64745 6.27584C9.69396 6.2209 9.86242 6.07003 10.51 6.07003H12.39H13.14V5.32003V2.14003V1.46398L12.4676 1.39405C11.5314 1.2967 10.5907 1.24863 9.64943 1.25003ZM9.64943 1.25003C9.64962 1.25003 9.64981 1.25003 9.65 1.25003V2.00003L9.64887 1.25003C9.64905 1.25003 9.64924 1.25003 9.64943 1.25003ZM5.07 8.57003V9.32003H4.32L5.07 8.57003Z" stroke="#009AD7" stroke-width="1.5"/>
</svg>
