<svg width="20" height="20" viewBox="0 0 20 20" fill="none" xmlns="http://www.w3.org/2000/svg">
<path fill-rule="evenodd" clip-rule="evenodd" d="M12.2753 2.40882L16.9087 5.83382C17.7976 6.47989 18.3265 7.50995 18.3337 8.60882V14.8088C18.2836 16.8032 16.6281 18.3804 14.6337 18.3338H5.36699C3.37253 18.3804 1.71701 16.8032 1.66699 14.8088V8.61715C1.67208 7.51352 2.20486 6.47893 3.10033 5.83382L7.72533 2.40882C9.08063 1.41939 10.92 1.41939 12.2753 2.40882ZM14.6337 17.0838C15.9379 17.1307 17.034 16.113 17.0837 14.8088V8.60882C17.0794 7.90494 16.7347 7.24667 16.1587 6.84215L11.5337 3.41715C10.6202 2.75013 9.3804 2.75013 8.46699 3.41715L3.84199 6.83382C3.26547 7.24548 2.92144 7.90875 2.91699 8.61715V14.8088C2.97118 16.1109 4.06447 17.1261 5.36699 17.0838H14.6337Z" fill="white"/>
<path d="M13.75 13.1255H6.25C5.90482 13.1255 5.625 13.4053 5.625 13.7505C5.625 14.0957 5.90482 14.3755 6.25 14.3755H13.75C14.0952 14.3755 14.375 14.0957 14.375 13.7505C14.375 13.4053 14.0952 13.1255 13.75 13.1255Z" fill="white"/>
</svg>
