<svg width="30" height="30" viewBox="0 0 30 30" fill="none" xmlns="http://www.w3.org/2000/svg">
<path d="M7.42589 13.2642C6.35871 13.2665 5.17603 13.3066 4.05111 12.878C3.19402 12.5031 2.4035 11.9801 1.74768 10.9496C1.37271 10.3603 1.212 9.50324 1.212 8.6997C1.212 8.37388 1.14772 5.91417 1.31913 5.05708C1.49054 4.19999 1.78944 3.55703 2.05728 3.18206C2.32512 2.80706 2.64653 2.37852 3.12865 2.00354C3.3973 1.7946 3.7179 1.62857 4.09286 1.46786C4.31102 1.37437 4.52142 1.36072 4.73566 1.30716C4.94994 1.25359 5.53919 1.2002 5.80703 1.2002H10.5563H16.6931C16.6931 1.2002 15.8896 1.68231 15.4611 2.00372C15.0325 2.32512 14.681 2.65772 14.0918 3.51482C13.6626 4.13909 13.5025 5.17541 13.449 5.55042C13.3954 5.92539 13.449 8.87163 13.449 8.87163V13.2642C13.449 13.2642 9.13877 13.2607 7.42589 13.2642Z" fill="white"/>
<path d="M16.7363 7.42588C16.7341 6.35872 16.6939 5.17603 17.1225 4.05112C17.4975 3.19403 18.0204 2.4035 19.0509 1.74768C19.6402 1.3727 20.4973 1.21201 21.3008 1.212C21.6266 1.212 24.0863 1.14772 24.9434 1.31913C25.8005 1.49054 26.4435 1.78944 26.8185 2.05729C27.1934 2.32513 27.622 2.64653 27.997 3.12864C28.2059 3.3973 28.3719 3.71791 28.5326 4.09288C28.6261 4.31101 28.6398 4.5214 28.6933 4.73566C28.7469 4.94997 28.8003 5.5392 28.8003 5.80706V10.5563V16.6932C28.8003 16.6932 28.3182 15.8896 27.9968 15.4611C27.6754 15.0325 27.3428 14.681 26.4857 14.0918C25.8614 13.6626 24.8251 13.5025 24.4501 13.449C24.0751 13.3954 21.1289 13.449 21.1289 13.449H16.7363C16.7363 13.449 16.7398 9.13877 16.7363 7.42588Z" fill="white"/>
<path d="M22.5734 16.7368C23.6406 16.7345 24.8233 16.6944 25.9482 17.123C26.8053 17.4979 27.5958 18.0209 28.2516 19.0514C28.6266 19.6407 28.7873 20.4978 28.7873 21.3013C28.7873 21.6271 28.8516 24.0868 28.6801 24.9439C28.5087 25.801 28.2099 26.444 27.942 26.8189C27.6742 27.194 27.3528 27.6225 26.8707 27.9974C26.602 28.2064 26.2814 28.3724 25.9064 28.5331C25.6883 28.6266 25.4779 28.6403 25.2636 28.6938C25.0493 28.7474 24.4601 28.8008 24.1922 28.8008H19.443H13.3062C13.3062 28.8008 14.1097 28.3187 14.5382 27.9973C14.9668 27.6759 15.3183 27.3433 15.9075 26.4862C16.3367 25.8619 16.4968 24.8256 16.5503 24.4506C16.6039 24.0756 16.5503 21.1294 16.5503 21.1294V16.7368C16.5503 16.7368 20.8605 16.7403 22.5734 16.7368Z" fill="white"/>
<path d="M13.2642 22.5744C13.2664 23.6416 13.3066 24.8243 12.878 25.9492C12.503 26.8063 11.9801 27.5968 10.9495 28.2526C10.3603 28.6276 9.50322 28.7883 8.69969 28.7883C8.37388 28.7883 5.91419 28.8525 5.05711 28.6811C4.20002 28.5098 3.55699 28.2108 3.18203 27.943C2.80706 27.6751 2.37852 27.3537 2.00354 26.8717C1.7946 26.603 1.62856 26.2824 1.46786 25.9074C1.37437 25.6893 1.36073 25.4788 1.30716 25.2646C1.25359 25.0503 1.2002 24.4611 1.2002 24.1932V19.444V13.3071C1.2002 13.3071 1.68231 14.1106 2.00371 14.5392C2.32512 14.9677 2.65772 15.3193 3.5148 15.9085C4.13906 16.3377 5.17541 16.4977 5.55042 16.5513C5.92538 16.6049 8.8716 16.5513 8.8716 16.5513H13.2642C13.2642 16.5513 13.2606 20.8615 13.2642 22.5744Z" fill="white"/>
</svg>
