<svg width="20" height="20" viewBox="0 0 20 20" fill="none" xmlns="http://www.w3.org/2000/svg">
<path d="M10.015 13.5C9.32279 13.503 8.64524 13.3006 8.06803 12.9185C7.49082 12.5364 7.03988 11.9917 6.77224 11.3533C6.5046 10.7149 6.43227 10.0114 6.56441 9.33195C6.69655 8.65244 7.02722 8.02738 7.5146 7.53581C8.00198 7.04423 8.62418 6.70822 9.30252 6.57026C9.98087 6.43231 10.6849 6.4986 11.3256 6.76076C11.9662 7.02292 12.5148 7.46917 12.9018 8.04308C13.2889 8.617 13.497 9.29279 13.5 9.98502C13.502 10.4446 13.4134 10.9002 13.2393 11.3256C13.0653 11.751 12.8091 12.1379 12.4855 12.4643C12.1619 12.7907 11.7772 13.0502 11.3533 13.2279C10.9294 13.4056 10.4746 13.4981 10.015 13.5ZM9.99002 7.50002C9.49557 7.502 9.01282 7.65056 8.6028 7.92691C8.19278 8.20325 7.87392 8.59498 7.68653 9.05255C7.49914 9.51011 7.45165 10.013 7.55005 10.4975C7.64845 10.9821 7.88833 11.4266 8.23936 11.7748C8.59038 12.1231 9.03679 12.3594 9.52212 12.4539C10.0075 12.5484 10.5099 12.4969 10.966 12.3059C11.422 12.1148 11.8112 11.7928 12.0842 11.3806C12.3573 10.9684 12.502 10.4845 12.5 9.99002C12.4987 9.66171 12.4327 9.33688 12.3059 9.03407C12.179 8.73126 11.9938 8.45639 11.7607 8.22518C11.5276 7.99396 11.2513 7.81091 10.9475 7.68649C10.6437 7.56207 10.3183 7.4987 9.99002 7.50002ZM10.54 19.5H9.54002C9.00976 19.5024 8.50025 19.2941 8.12352 18.921C7.74678 18.5478 7.53367 18.0403 7.53102 17.51C7.53199 17.3883 7.4965 17.269 7.42914 17.1676C7.36178 17.0662 7.26561 16.9873 7.15302 16.941H7.14602C7.03998 16.8975 6.92342 16.8864 6.81109 16.9092C6.69876 16.932 6.59572 16.9876 6.51502 17.069C6.33056 17.2592 6.11029 17.411 5.8669 17.5157C5.62351 17.6203 5.36181 17.6758 5.09689 17.6789C4.83197 17.6819 4.56906 17.6325 4.32331 17.5335C4.07756 17.4345 3.85383 17.2879 3.66502 17.102L2.95702 16.402C2.77009 16.2167 2.62157 15.9964 2.51997 15.7536C2.41837 15.5108 2.36568 15.2504 2.36494 14.9872C2.3642 14.724 2.41541 14.4632 2.51564 14.2199C2.61587 13.9765 2.76314 13.7553 2.94902 13.569C3.03299 13.4824 3.08991 13.3732 3.11282 13.2547C3.13573 13.1363 3.12363 13.0137 3.07802 12.902C3.03411 12.7946 2.9592 12.7027 2.86284 12.6381C2.76649 12.5734 2.65306 12.5389 2.53702 12.539C2.27162 12.543 2.00806 12.4943 1.76161 12.3957C1.51516 12.2971 1.29072 12.1506 1.10127 11.9647C0.911817 11.7788 0.761128 11.5571 0.657923 11.3126C0.554719 11.068 0.501049 10.8055 0.50002 10.54V9.54002C0.497628 9.00976 0.705913 8.50025 1.07908 8.12352C1.45225 7.74678 1.95976 7.53367 2.49002 7.53102C2.61175 7.53199 2.73099 7.4965 2.8324 7.42914C2.9338 7.36178 3.01272 7.26561 3.05902 7.15302V7.14602C3.10214 7.03992 3.11299 6.92345 3.09022 6.81121C3.06745 6.69897 3.01207 6.59594 2.93102 6.51502C2.74109 6.33036 2.58956 6.10996 2.48515 5.86651C2.38073 5.62305 2.32549 5.36135 2.32261 5.09647C2.31973 4.83159 2.36926 4.56875 2.46836 4.32308C2.56745 4.07741 2.71416 3.85377 2.90002 3.66502L3.60002 2.95402C3.78496 2.76743 4.00485 2.6191 4.24713 2.51751C4.4894 2.41592 4.74932 2.36305 5.01203 2.36194C5.27475 2.36083 5.53511 2.41148 5.77824 2.51101C6.02137 2.61055 6.24251 2.757 6.42902 2.94202C6.51407 3.0291 6.62326 3.08869 6.74251 3.11311C6.86176 3.13753 6.98559 3.12566 7.09802 3.07902C7.20604 3.03576 7.29858 2.96107 7.36366 2.86461C7.42873 2.76815 7.46335 2.65438 7.46302 2.53802C7.45905 2.27274 7.5077 2.00929 7.60614 1.76292C7.70459 1.51655 7.85088 1.29212 8.03657 1.10262C8.22226 0.913119 8.44367 0.762294 8.68799 0.658863C8.93231 0.555432 9.19471 0.501444 9.46002 0.50002H10.46C10.9903 0.497628 11.4998 0.705913 11.8765 1.07908C12.2533 1.45225 12.4664 1.95976 12.469 2.49002C12.4659 2.6104 12.4995 2.72889 12.5654 2.82966C12.6314 2.93043 12.7264 3.0087 12.838 3.05402C12.9472 3.09855 13.0668 3.11082 13.1828 3.08937C13.2987 3.06792 13.406 3.01366 13.492 2.93302C13.6768 2.74146 13.8981 2.58887 14.1429 2.48427C14.3876 2.37967 14.6509 2.32518 14.917 2.32402C15.1798 2.32229 15.4403 2.37266 15.6836 2.47221C15.9268 2.57176 16.1479 2.71853 16.334 2.90402L17.042 3.60402C17.2286 3.78896 17.3769 4.00885 17.4785 4.25113C17.5801 4.4934 17.633 4.75332 17.6341 5.01603C17.6352 5.27875 17.5846 5.53911 17.485 5.78224C17.3855 6.02537 17.239 6.24651 17.054 6.43302C16.9673 6.51573 16.9073 6.62251 16.8818 6.73961C16.8564 6.8567 16.8665 6.97875 16.911 7.09002L16.918 7.10402C16.9613 7.21166 17.0359 7.30382 17.1322 7.36855C17.2285 7.43327 17.342 7.46758 17.458 7.46702C17.7233 7.46252 17.9869 7.51064 18.2334 7.6086C18.48 7.70655 18.7047 7.85241 18.8946 8.03772C19.0845 8.22304 19.2357 8.44415 19.3397 8.68828C19.4436 8.93241 19.4981 9.19471 19.5 9.46002V10.46C19.5012 10.7227 19.4506 10.9831 19.3511 11.2263C19.2517 11.4695 19.1052 11.6907 18.9203 11.8772C18.7353 12.0638 18.5153 12.2121 18.273 12.3136C18.0307 12.4152 17.7708 12.468 17.508 12.469C17.3876 12.4659 17.2692 12.4995 17.1684 12.5654C17.0676 12.6314 16.9893 12.7264 16.944 12.838C16.8997 12.9472 16.8876 13.0668 16.909 13.1827C16.9305 13.2986 16.9846 13.4059 17.065 13.492C17.2551 13.6761 17.4068 13.8961 17.5113 14.1392C17.6158 14.3824 17.671 14.6438 17.6737 14.9085C17.6764 15.1731 17.6265 15.4356 17.527 15.6808C17.4275 15.9261 17.2803 16.1491 17.094 16.337L16.394 17.045C16.2091 17.2316 15.9892 17.3799 15.7469 17.4815C15.5046 17.5831 15.2447 17.636 14.982 17.6371C14.7193 17.6382 14.4589 17.5876 14.2158 17.488C13.9727 17.3885 13.7515 17.242 13.565 17.057C13.4823 16.9703 13.3755 16.9103 13.2584 16.8848C13.1413 16.8594 13.0193 16.8695 12.908 16.914C12.7983 16.9579 12.704 17.0333 12.6369 17.1306C12.5698 17.2279 12.533 17.3428 12.531 17.461C12.5351 17.7259 12.4868 17.9889 12.3888 18.235C12.2907 18.4811 12.145 18.7054 11.9599 18.895C11.7749 19.0845 11.5541 19.2355 11.3104 19.3394C11.0667 19.4432 10.8049 19.4978 10.54 19.5ZM7.58102 16.039C7.85937 16.1643 8.09642 16.3661 8.2646 16.6208C8.43277 16.8756 8.52516 17.1728 8.53102 17.478C8.5289 17.6111 8.55315 17.7432 8.60236 17.8668C8.65157 17.9905 8.72476 18.1031 8.81773 18.1983C8.91069 18.2935 9.02158 18.3694 9.14401 18.4215C9.26643 18.4736 9.39797 18.501 9.53102 18.502H10.531C10.7962 18.502 11.0506 18.3967 11.2381 18.2091C11.4257 18.0216 11.531 17.7672 11.531 17.502C11.5298 17.1819 11.6234 16.8685 11.8002 16.6015C11.9769 16.3346 12.2288 16.1259 12.524 16.002C12.8123 15.881 13.13 15.8483 13.4369 15.9079C13.7437 15.9676 14.026 16.1169 14.248 16.337C14.3409 16.4331 14.4519 16.5097 14.5746 16.5625C14.6973 16.6153 14.8293 16.6432 14.9629 16.6446C15.0965 16.646 15.229 16.6209 15.3528 16.5707C15.4766 16.5204 15.5892 16.4461 15.684 16.352L16.384 15.644C16.4768 15.5506 16.5502 15.4398 16.6 15.3179C16.6498 15.196 16.6751 15.0655 16.6743 14.9339C16.6736 14.8022 16.6468 14.672 16.5957 14.5507C16.5445 14.4294 16.4698 14.3194 16.376 14.227C16.1524 14.004 15.9989 13.7205 15.9342 13.4114C15.8696 13.1023 15.8966 12.781 16.012 12.487V12.476L16.017 12.463C16.1344 12.1727 16.3358 11.9239 16.5953 11.7486C16.8549 11.5733 17.1608 11.4795 17.474 11.479C17.6069 11.4809 17.7388 11.4564 17.8622 11.4071C17.9856 11.3578 18.098 11.2845 18.193 11.1916C18.288 11.0987 18.3637 10.9879 18.4157 10.8656C18.4677 10.7433 18.495 10.6119 18.496 10.479V9.47902C18.496 9.2138 18.3907 8.95945 18.2031 8.77191C18.0156 8.58438 17.7612 8.47902 17.496 8.47902C17.1772 8.48477 16.8641 8.39447 16.5973 8.21988C16.3305 8.04528 16.1224 7.79446 16 7.50002V7.49302C15.8764 7.20344 15.8418 6.88361 15.9005 6.57427C15.9593 6.26493 16.1088 5.98009 16.33 5.75602C16.4262 5.66323 16.5029 5.55225 16.5558 5.42952C16.6087 5.3068 16.6367 5.17479 16.6381 5.04116C16.6395 4.90753 16.6143 4.77497 16.564 4.65116C16.5137 4.52736 16.4392 4.4148 16.345 4.32002L15.637 3.62002C15.5437 3.52746 15.433 3.4542 15.3114 3.40444C15.1897 3.35468 15.0595 3.32939 14.928 3.33002C14.7961 3.33041 14.6657 3.35715 14.5442 3.40867C14.4228 3.46019 14.3129 3.53544 14.221 3.63002C13.998 3.85359 13.7145 4.00714 13.4054 4.07181C13.0963 4.13647 12.775 4.10944 12.481 3.99402H12.47H12.457C12.1667 3.87662 11.9179 3.67527 11.7426 3.41571C11.5673 3.15616 11.4735 2.85022 11.473 2.53702C11.4749 2.40415 11.4504 2.27222 11.4011 2.14882C11.3518 2.02543 11.2785 1.91301 11.1856 1.81802C11.0927 1.72304 10.9819 1.64737 10.8596 1.59537C10.7373 1.54337 10.6059 1.51606 10.473 1.51502H9.47302C9.2078 1.51502 8.95345 1.62038 8.76591 1.80791C8.57838 1.99545 8.47302 2.2498 8.47302 2.51502C8.47628 2.83256 8.38427 3.14378 8.20886 3.4085C8.03346 3.67321 7.78272 3.87925 7.48902 4.00002C7.19882 4.12023 6.87983 4.15304 6.57124 4.09441C6.26265 4.03578 5.97791 3.88828 5.75202 3.67002C5.65916 3.57397 5.54815 3.49733 5.42544 3.44452C5.30272 3.39172 5.17074 3.36381 5.03716 3.36241C4.90357 3.36101 4.77103 3.38616 4.64724 3.43639C4.52345 3.48662 4.41087 3.56094 4.31602 3.65502L3.61602 4.36602C3.52344 4.45929 3.45014 4.56989 3.40033 4.6915C3.35052 4.81311 3.32517 4.94335 3.32573 5.07476C3.32629 5.20618 3.35274 5.3362 3.40358 5.45738C3.45442 5.57857 3.52865 5.68854 3.62202 5.78102C3.85051 6.0013 4.00785 6.28491 4.07379 6.59536C4.13973 6.90581 4.11125 7.22889 3.99202 7.52302C3.98457 7.5419 3.97588 7.56028 3.96602 7.57802C3.84072 7.85637 3.63896 8.09342 3.38422 8.2616C3.12947 8.42977 2.83222 8.52216 2.52702 8.52802C2.39398 8.5259 2.26183 8.55015 2.13821 8.59936C2.01458 8.64857 1.90192 8.72176 1.80673 8.81473C1.71153 8.90769 1.63568 9.01858 1.58356 9.14101C1.53143 9.26343 1.50406 9.39497 1.50302 9.52802V10.528C1.50302 10.7932 1.60838 11.0476 1.79591 11.2351C1.98345 11.4227 2.2378 11.528 2.50302 11.528C2.82199 11.5214 3.13552 11.6113 3.40261 11.7858C3.66969 11.9602 3.87791 12.2113 4.00002 12.506V12.516V12.527C4.11743 12.8172 4.14809 13.1352 4.08826 13.4425C4.02844 13.7498 3.88072 14.0331 3.66302 14.258C3.56734 14.3505 3.49109 14.4612 3.43874 14.5836C3.38638 14.706 3.35899 14.8375 3.35815 14.9706C3.35731 15.1037 3.38305 15.2356 3.43385 15.3587C3.48466 15.4817 3.55951 15.5933 3.65402 15.687L4.36202 16.387C4.45529 16.4796 4.56589 16.5529 4.6875 16.6027C4.80911 16.6525 4.93935 16.6779 5.07076 16.6773C5.20218 16.6768 5.3322 16.6503 5.45338 16.5995C5.57457 16.5486 5.68454 16.4744 5.77702 16.381C5.9973 16.1525 6.28091 15.9952 6.59136 15.9293C6.90181 15.8633 7.22489 15.8918 7.51902 16.011C7.54034 16.0188 7.56107 16.0282 7.58102 16.039Z" fill="white"/>
</svg>
