<svg width="17" height="18" viewBox="0 0 17 18" fill="none" xmlns="http://www.w3.org/2000/svg">
<path d="M6.53118 16.0199L6.34923 15.5541L6.53118 16.0199ZM2.47478 16.7988L2.22478 17.2318H2.22478L2.47478 16.7988ZM1.12116 12.8964L0.626865 12.9717L1.12116 12.8964ZM1.61146 10.2941L2.04447 10.5441L1.61146 10.2941ZM1.02731 11.5314L0.535958 11.4388H0.535958L1.02731 11.5314ZM8.53967 14.2941L8.97268 14.5441L8.53967 14.2941ZM7.76024 15.4186L8.08609 15.7979L7.76024 15.4186ZM5.4099 3.71503L4.97689 3.46503L5.4099 3.71503ZM16.4099 17.7509C16.686 17.7509 16.9099 17.5271 16.9099 17.2509C16.9099 16.9748 16.686 16.7509 16.4099 16.7509V17.7509ZM10.4099 16.7509C10.1338 16.7509 9.9099 16.9748 9.9099 17.2509C9.9099 17.5271 10.1338 17.7509 10.4099 17.7509V16.7509ZM11.9051 7.46503L8.10665 14.0441L8.97268 14.5441L12.7711 7.96503L11.9051 7.46503ZM2.04447 10.5441L5.84291 3.96503L4.97689 3.46503L1.17845 10.0441L2.04447 10.5441ZM6.34923 15.5541C5.26004 15.9797 4.49353 16.2778 3.89542 16.4176C3.31038 16.5543 2.98299 16.5149 2.72478 16.3658L2.22478 17.2318C2.79904 17.5634 3.42521 17.5544 4.12293 17.3913C4.80758 17.2314 5.65304 16.8997 6.71314 16.4856L6.34923 15.5541ZM0.626865 12.9717C0.79823 14.0968 0.933756 14.9948 1.13755 15.6677C1.34524 16.3535 1.65053 16.9003 2.22478 17.2318L2.72478 16.3658C2.46658 16.2167 2.26877 15.9529 2.09462 15.3779C1.91658 14.79 1.79153 13.9771 1.61546 12.8211L0.626865 12.9717ZM1.17845 10.0441C0.848106 10.6163 0.61843 11.0011 0.535958 11.4388L1.51867 11.624C1.56232 11.3922 1.68004 11.1753 2.04447 10.5441L1.17845 10.0441ZM1.61546 12.8211C1.50572 12.1005 1.47501 11.8557 1.51867 11.624L0.535958 11.4388C0.453486 11.8765 0.527387 12.3185 0.626865 12.9717L1.61546 12.8211ZM8.10665 14.0441C7.74222 14.6753 7.61323 14.8857 7.43439 15.0394L8.08609 15.7979C8.42393 15.5076 8.64233 15.1163 8.97268 14.5441L8.10665 14.0441ZM6.71314 16.4856C7.32852 16.2452 7.74825 16.0882 8.08609 15.7979L7.43439 15.0394C7.25555 15.1931 7.02813 15.2889 6.34923 15.5541L6.71314 16.4856ZM10.624 2.68394C11.4527 3.16241 12.0302 3.49704 12.4325 3.80745C12.8232 4.109 12.9874 4.34271 13.0549 4.59475L14.0209 4.33593C13.874 3.78777 13.5227 3.38568 13.0434 3.01577C12.5755 2.65473 11.9283 2.28225 11.124 1.81791L10.624 2.68394ZM12.7711 7.96503C13.2355 7.16077 13.6098 6.51455 13.8344 5.96796C14.0646 5.40794 14.1677 4.88409 14.0209 4.33593L13.0549 4.59475C13.1225 4.84679 13.0971 5.13128 12.9095 5.58781C12.7163 6.05777 12.3836 6.63629 11.9051 7.46503L12.7711 7.96503ZM11.124 1.81791C10.3197 1.35358 9.67352 0.979255 9.12693 0.754605C8.56692 0.524438 8.04306 0.421285 7.4949 0.568163L7.75372 1.53409C8.00577 1.46655 8.29026 1.4919 8.74679 1.67953C9.21674 1.87268 9.79526 2.20547 10.624 2.68394L11.124 1.81791ZM5.84291 3.96503C6.32138 3.13629 6.65601 2.55883 6.96642 2.15658C7.26797 1.76582 7.50168 1.60162 7.75372 1.53409L7.4949 0.568163C6.94675 0.715041 6.54465 1.0663 6.17475 1.54564C5.81371 2.01349 5.44122 2.66077 4.97689 3.46503L5.84291 3.96503ZM12.5881 7.28202L5.6599 3.28202L5.1599 4.14804L12.0881 8.14804L12.5881 7.28202ZM16.4099 16.7509H10.4099V17.7509H16.4099V16.7509Z" fill="white"/>
</svg>
