<svg width="18" height="18" viewBox="0 0 18 18" fill="none" xmlns="http://www.w3.org/2000/svg">
<path fill-rule="evenodd" clip-rule="evenodd" d="M9 0.800021C4.02944 0.800021 0 4.65037 0 9.40001C0 14.1497 4.02944 18 9 18C13.9706 18 18 14.1497 18 9.40001C18 4.65037 13.9706 0.800021 9 0.800021ZM9.62791 6.20001C9.62791 5.86864 9.34679 5.60002 9 5.60002C8.65322 5.60002 8.3721 5.86864 8.3721 6.20001V9.56469C8.3721 9.81972 8.27012 10.0651 8.08703 10.2507L6.86871 11.4855C6.63082 11.7266 6.64252 12.1063 6.89484 12.3336C7.14716 12.5609 7.54456 12.5498 7.78245 12.3087L9.00077 11.0739C9.40357 10.6656 9.62791 10.1258 9.62791 9.56469V6.20001Z" fill="white"/>
<path d="M3.95039 1.06854C4.22118 0.861537 4.26509 0.483962 4.04845 0.225205C3.83182 -0.0335521 3.43668 -0.0755048 3.16589 0.131501L1.07287 1.7315C0.802073 1.9385 0.758169 2.31608 0.974803 2.57484C1.19144 2.83359 1.58657 2.87555 1.85737 2.66854L3.95039 1.06854Z" fill="white"/>
<path d="M14.8341 0.131501C14.5633 -0.0755048 14.1682 -0.0335521 13.9515 0.225205C13.7349 0.483962 13.7788 0.861537 14.0496 1.06854L16.1426 2.66854C16.4134 2.87555 16.8086 2.83359 17.0252 2.57484C17.2418 2.31608 17.1979 1.9385 16.9271 1.7315L14.8341 0.131501Z" fill="white"/>
</svg>
