<svg width="20" height="16" viewBox="0 0 20 16" fill="none" xmlns="http://www.w3.org/2000/svg">
<path d="M0.5 1C0.5 0.724 0.724 0.5 1 0.5H14C14.276 0.5 14.5 0.724 14.5 1C14.5 1.276 14.276 1.5 14 1.5H1C0.724 1.5 0.5 1.276 0.5 1ZM19 7.5H1C0.724 7.5 0.5 7.724 0.5 8C0.5 8.276 0.724 8.5 1 8.5H19C19.276 8.5 19.5 8.276 19.5 8C19.5 7.724 19.276 7.5 19 7.5ZM10 14.5H1C0.724 14.5 0.5 14.724 0.5 15C0.5 15.276 0.724 15.5 1 15.5H10C10.276 15.5 10.5 15.276 10.5 15C10.5 14.724 10.276 14.5 10 14.5Z" fill="white"/>
</svg>
